<?xml version="1.0" encoding="UTF-8" standalone="no"?>
<svg
   xmlns:dc="http://purl.org/dc/elements/1.1/"
   xmlns:cc="http://creativecommons.org/ns#"
   xmlns:rdf="http://www.w3.org/1999/02/22-rdf-syntax-ns#"
   xmlns:svg="http://www.w3.org/2000/svg"
   xmlns="http://www.w3.org/2000/svg"
   xmlns:xlink="http://www.w3.org/1999/xlink"
   xmlns:sodipodi="http://sodipodi.sourceforge.net/DTD/sodipodi-0.dtd"
   xmlns:inkscape="http://www.inkscape.org/namespaces/inkscape"
   height="30"
   width="30"
   version="1.0"
   id="svg2"
   sodipodi:version="0.32"
   inkscape:version="0.48.2 r9819"
   sodipodi:docname="dB.svg"
   inkscape:export-filename="/Users/olivier/Desktop/Blason Rouge/Blason_Vide_3D.png"
   inkscape:export-xdpi="144"
   inkscape:export-ydpi="144"
   inkscape:output_extension="org.inkscape.output.svg.inkscape">
  <metadata
     id="metadata49">
    <rdf:RDF>
      <cc:Work
         rdf:about="">
        <dc:format>image/svg+xml</dc:format>
        <dc:type
           rdf:resource="http://purl.org/dc/dcmitype/StillImage" />
        <dc:title>Gabarit d'un blason en pointe pour le projet Blasons de Wikipédia</dc:title>
        <dc:date>03-AUG-2006</dc:date>
        <dc:creator>
          <cc:Agent>
            <dc:title>Jérôme BLUM (wagner51)</dc:title>
          </cc:Agent>
        </dc:creator>
        <cc:license
           rdf:resource="http://web.resource.org/cc/PublicDomain" />
        <dc:language>fr</dc:language>
        <dc:subject>
          <rdf:Bag>
            <rdf:li>gabarit modèle blason projet wikipédia</rdf:li>
          </rdf:Bag>
        </dc:subject>
      </cc:Work>
      <cc:License
         rdf:about="http://web.resource.org/cc/PublicDomain">
        <cc:permits
           rdf:resource="http://web.resource.org/cc/Reproduction" />
        <cc:permits
           rdf:resource="http://web.resource.org/cc/Distribution" />
        <cc:permits
           rdf:resource="http://web.resource.org/cc/DerivativeWorks" />
      </cc:License>
    </rdf:RDF>
  </metadata>
  <sodipodi:namedview
     inkscape:window-height="818"
     inkscape:window-width="1659"
     inkscape:pageshadow="2"
     inkscape:pageopacity="0.0"
     guidetolerance="10.0"
     gridtolerance="10.0"
     objecttolerance="10.0"
     borderopacity="1.0"
     bordercolor="#666666"
     pagecolor="#ffffff"
     id="base"
     showgrid="false"
     height="660px"
     inkscape:zoom="11.313709"
     inkscape:cx="-2.0875601"
     inkscape:cy="12.261817"
     inkscape:window-x="235"
     inkscape:window-y="79"
     inkscape:current-layer="g4050"
     inkscape:window-maximized="0" />
  <desc
     id="desc4">Flag of Canton of Valais (Wallis)</desc>
  <defs
     id="defs6">
    <inkscape:perspective
       sodipodi:type="inkscape:persp3d"
       inkscape:vp_x="0 : 330 : 1"
       inkscape:vp_y="0 : 1000 : 0"
       inkscape:vp_z="600 : 330 : 1"
       inkscape:persp3d-origin="300 : 220 : 1"
       id="perspective4807" />
    <linearGradient
       id="linearGradient2893">
      <stop
         style="stop-color: white; stop-opacity: 0.313726;"
         offset="0"
         id="stop2895" />
      <stop
         id="stop2897"
         offset="0.19"
         style="stop-color: white; stop-opacity: 0.25098;" />
      <stop
         style="stop-color: rgb(107, 107, 107); stop-opacity: 0.12549;"
         offset="0.60000002"
         id="stop2901" />
      <stop
         style="stop-color: black; stop-opacity: 0.12549;"
         offset="1"
         id="stop2899" />
    </linearGradient>
    <linearGradient
       id="linearGradient2885">
      <stop
         id="stop2887"
         offset="0"
         style="stop-color: white; stop-opacity: 1;" />
      <stop
         style="stop-color: white; stop-opacity: 1;"
         offset="0.22857143"
         id="stop2891" />
      <stop
         id="stop2889"
         offset="1"
         style="stop-color: black; stop-opacity: 1;" />
    </linearGradient>
    <linearGradient
       id="linearGradient2955">
      <stop
         id="stop2867"
         offset="0"
         style="stop-color: rgb(253, 0, 0); stop-opacity: 1;" />
      <stop
         style="stop-color: rgb(231, 114, 117); stop-opacity: 0.658824;"
         offset="0.5"
         id="stop2873" />
      <stop
         style="stop-color: black; stop-opacity: 0.322917;"
         offset="1"
         id="stop2959" />
    </linearGradient>
    <radialGradient
       inkscape:collect="always"
       xlink:href="#linearGradient2955"
       id="radialGradient2961"
       cx="225.52438"
       cy="218.90099"
       fx="225.52438"
       fy="218.90099"
       r="300"
       gradientTransform="matrix(-4.16794e-4,2.18287,-1.88423,-3.59956e-4,615.597,-289.121)"
       gradientUnits="userSpaceOnUse" />
    <polygon
       id="star"
       transform="scale(53,53)"
       points="-0.587785,0.809017 0,-1 0,-1 0.587785,0.809017 -0.951057,-0.309017 0.951057,-0.309017 " />
    <clipPath
       id="clip">
      <path
         d="m 0,-200 0,800 300,0 0,-800 -300,0 z"
         id="path10"
         inkscape:connector-curvature="0" />
    </clipPath>
    <radialGradient
       inkscape:collect="always"
       xlink:href="#linearGradient2955"
       id="radialGradient1911"
       gradientUnits="userSpaceOnUse"
       gradientTransform="matrix(-4.16794e-4,2.18287,-1.88423,-3.59956e-4,615.597,-289.121)"
       cx="225.52438"
       cy="218.90099"
       fx="225.52438"
       fy="218.90099"
       r="300" />
    <radialGradient
       inkscape:collect="always"
       xlink:href="#linearGradient2955"
       id="radialGradient2865"
       gradientUnits="userSpaceOnUse"
       gradientTransform="matrix(0,1.74872,-1.59316,-1.04977e-7,551.788,-191.29)"
       cx="225.52438"
       cy="218.90099"
       fx="225.52438"
       fy="218.90099"
       r="300" />
    <radialGradient
       inkscape:collect="always"
       xlink:href="#linearGradient2955"
       id="radialGradient2871"
       gradientUnits="userSpaceOnUse"
       gradientTransform="matrix(0,1.38624,-1.32329,-5.74113e-8,-158.082,-109.541)"
       cx="225.52438"
       cy="218.90099"
       fx="225.52438"
       fy="218.90099"
       r="300" />
    <radialGradient
       inkscape:collect="always"
       xlink:href="#linearGradient2893"
       id="radialGradient3163"
       gradientUnits="userSpaceOnUse"
       gradientTransform="matrix(0.05804536,0,0,0.05786134,-20.001595,638.66213)"
       cx="221.44487"
       cy="226.33101"
       fx="221.44487"
       fy="226.33101"
       r="300" />
  </defs>
  <g
     inkscape:groupmode="layer"
     id="layer3"
     inkscape:label="Fond écu"
     style="display:inline"
     transform="translate(0,-630)" />
  <g
     inkscape:groupmode="layer"
     id="layer4"
     inkscape:label="Meubles"
     transform="translate(0,-630)" />
  <g
     inkscape:groupmode="layer"
     id="layer2"
     inkscape:label="Reflet final"
     transform="translate(0,-630)" />
  <g
     inkscape:groupmode="layer"
     id="layer1"
     inkscape:label="Contour final"
     transform="translate(0,-630)">
    <rect
       style="fill:#003459;fill-opacity:1;stroke:none;opacity:0"
       id="rect3145"
       width="30"
       height="30"
       x="0"
       y="630" />
    <g
       id="g4050">
      <path
         inkscape:connector-curvature="0"
         sodipodi:nodetypes="cccccc"
         d="m 15.071529,658.49638 c 0,0 12.312022,-4.63281 12.312022,-16.40663 0,-11.77381 0,-10.66429 0,-10.66429 l -24.6240429,0 0,10.66429 c 0,11.77382 12.3120209,16.40663 12.3120209,16.40663 z"
         style="fill:#0000ff;fill-opacity:1;fill-rule:evenodd;stroke:#ffffff;stroke-width:1.92316246;stroke-miterlimit:4;stroke-opacity:1;stroke-dasharray:none;display:inline"
         id="path2855" />
      <path
         inkscape:connector-curvature="0"
         inkscape:export-ydpi="144"
         inkscape:export-xdpi="144"
         id="path1411"
         style="fill:none;stroke:none;stroke-width:0.97585451999999995;stroke-linecap:butt;stroke-linejoin:miter;stroke-miterlimit:4;stroke-opacity:1;stroke-dasharray:none"
         d="m 15.071529,659.08605 c 0,0 -12.8039322,-4.81789 -12.8039322,-17.06212 0,-12.24423 0,-11.09038 0,-11.09038 l 25.6078642,0 0,11.09038 c 0,12.24423 -12.803932,17.06212 -12.803932,17.06212 z"
         sodipodi:nodetypes="cccccc" />
      <g
         transform="matrix(1.6573841,0,0,1.6573841,-8.3337245,622.74023)"
         style="font-size:12px;font-style:normal;font-variant:normal;font-weight:bold;font-stretch:normal;line-height:125%;letter-spacing:0px;word-spacing:0px;fill:#ffffff;fill-opacity:1;stroke:none;font-family:Arial;-inkscape-font-specification:Sans Bold"
         id="flowRoot3915">
        <path
           d="m 12.568359,14.120632 -1.529296,0 0,-0.914063 c -0.253912,0.35547 -0.553716,0.620118 -0.899415,0.793946 -0.3457065,0.173828 -0.6943389,0.260742 -1.045898,0.260742 -0.7148461,0 -1.3271502,-0.288086 -1.8369141,-0.864258 C 6.7470696,12.820828 6.492187,12.017118 6.4921875,10.985866 6.492187,9.9311828 6.7402336,9.1294258 7.2363281,8.5805927 7.7324201,8.0317706 8.3593726,7.7573568 9.1171875,7.7573505 9.8124962,7.7573568 10.414058,8.046419 10.921875,8.624538 l 0,-3.09375 1.646484,0 z M 8.1738281,10.874538 c -2.1e-6,0.664065 0.091795,1.144533 0.2753907,1.441406 0.2656222,0.429689 0.6367156,0.644533 1.1132812,0.644531 0.3789023,2e-6 0.701168,-0.161131 0.966797,-0.483398 0.26562,-0.322264 0.398432,-0.803708 0.398437,-1.444336 -5e-6,-0.71484 -0.128911,-1.2294878 -0.386718,-1.5439452 C 10.283199,9.1743476 9.953121,9.0171212 9.5507813,9.0171161 9.1601531,9.0171212 8.833005,9.1723945 8.5693359,9.4829364 8.3056618,9.7934876 8.173826,10.257354 8.1738281,10.874538 z"
           style="fill:#ffffff"
           id="path3924" />
        <path
           d="m 14.214844,5.530788 3.433593,0 c 0.679683,8.6e-6 1.186518,0.028329 1.520508,0.084961 0.333979,0.056649 0.632806,0.174813 0.896485,0.3544922 0.263665,0.1796955 0.483391,0.418953 0.659179,0.7177734 0.175774,0.2988353 0.263665,0.6337959 0.263672,1.0048828 -7e-6,0.4023498 -0.108406,0.7714901 -0.325195,1.1074219 -0.216804,0.3359425 -0.510749,0.5878954 -0.881836,0.7558594 0.523431,0.1523482 0.925774,0.4121135 1.207031,0.7792964 0.281242,0.367191 0.421867,0.798832 0.421875,1.294922 -8e-6,0.390627 -0.09083,0.77051 -0.272461,1.139649 -0.181648,0.369141 -0.429695,0.664063 -0.74414,0.884765 -0.31446,0.220704 -0.702155,0.356446 -1.163086,0.407227 -0.289068,0.03125 -0.986333,0.05078 -2.091797,0.05859 l -2.923828,0 z m 1.734375,1.4296875 0,1.9863281 1.136718,0 c 0.675777,5.2e-6 1.095699,-0.00976 1.259766,-0.029297 0.29687,-0.035151 0.530268,-0.13769 0.700195,-0.3076172 0.169916,-0.1699162 0.254877,-0.3935488 0.254883,-0.6708984 -6e-6,-0.2656186 -0.07325,-0.4814387 -0.219726,-0.6474609 -0.14649,-0.1660087 -0.364264,-0.2665945 -0.653321,-0.3017579 -0.17188,-0.019524 -0.66602,-0.02929 -1.482422,-0.029297 z m 0,3.4160155 0,2.296875 1.605468,0 c 0.624996,2e-6 1.02148,-0.01758 1.189454,-0.05273 0.257806,-0.04687 0.467767,-0.161131 0.629882,-0.342774 0.162104,-0.181638 0.243158,-0.424802 0.243164,-0.729492 -6e-6,-0.25781 -0.06251,-0.476559 -0.1875,-0.65625 -0.125005,-0.179684 -0.305669,-0.310543 -0.541992,-0.392578 -0.236333,-0.08203 -0.749028,-0.123043 -1.538086,-0.123047 z"
           style="fill:#ffffff"
           id="path3926" />
      </g>
      <g
         transform="translate(30.493979,636.54074)"
         style="font-size:12px;font-style:normal;font-variant:normal;font-weight:bold;font-stretch:normal;line-height:125%;letter-spacing:0px;word-spacing:0px;fill:#ffffff;fill-opacity:1;stroke:none;font-family:Arial;-inkscape-font-specification:Sans Bold"
         id="flowRoot3928">
        <path
           d="m -19.527344,16.221946 1.386719,0 -0.283203,1.352539 -1.386719,0 z"
           style="font-size:10px;font-style:oblique;fill:#ffffff;-inkscape-font-specification:Arial Bold Oblique"
           id="path3937" />
        <path
           d="m -13.462891,12.388938 -0.214843,1.025391 -0.991211,0 -0.869141,4.160156 -1.401367,0 0.869141,-4.160156 -0.78125,0 0.214843,-1.025391 0.78125,0 0.112305,-0.532227 c 0.09114,-0.436191 0.177407,-0.730787 0.258789,-0.883789 0.110675,-0.208326 0.275877,-0.373528 0.495605,-0.495605 0.219724,-0.122063 0.506996,-0.183098 0.861817,-0.183106 0.429684,8e-6 0.882157,0.07813 1.357422,0.234375 l -0.273438,1.000977 c -0.33529,-0.113926 -0.6071,-0.170892 -0.815429,-0.170899 -0.159509,7e-6 -0.278324,0.05046 -0.356446,0.151368 -0.05209,0.06511 -0.105797,0.236008 -0.161133,0.512695 l -0.07813,0.366211 z"
           style="font-size:10px;font-style:oblique;fill:#ffffff;-inkscape-font-specification:Arial Bold Oblique"
           id="path3939" />
        <path
           d="m -12.730469,12.388938 1.308594,0 -0.209961,1.005859 c 0.488278,-0.751948 1.017249,-1.127924 1.586914,-1.127929 0.2018187,5e-6 0.4182899,0.05046 0.6494142,0.151367 l -0.5371094,1.147461 c -0.1269568,-0.04557 -0.2620478,-0.06836 -0.4052738,-0.06836 -0.240889,4e-6 -0.485843,0.09115 -0.734863,0.273438 -0.249026,0.182295 -0.443525,0.425622 -0.583496,0.72998 -0.139976,0.304365 -0.278323,0.786949 -0.415039,1.447754 l -0.341797,1.625977 -1.401367,0 z"
           style="font-size:10px;font-style:oblique;fill:#ffffff;-inkscape-font-specification:Arial Bold Oblique"
           id="path3941" />
      </g>
    </g>
  </g>
</svg>
